<?xml version="1.0" standalone="no"?>
<!DOCTYPE svg PUBLIC "-//W3C//DTD SVG 20010904//EN"
 "http://www.w3.org/TR/2001/REC-SVG-20010904/DTD/svg10.dtd">
<svg version="1.0" xmlns="http://www.w3.org/2000/svg"
 width="900.000000pt" height="900.000000pt" viewBox="0 0 900.000000 900.000000"
 preserveAspectRatio="xMidYMid meet">
<metadata>
Created by potrace 1.14, written by Peter Selinger 2001-2017
</metadata>
<g transform="translate(0.000000,900.000000) scale(0.100000,-0.100000)"
fill="#000000" stroke="none">
<path d="M2522 6709 c-392 -32 -785 -202 -1103 -476 -391 -337 -654 -837 -724
-1376 -30 -235 -16 -559 36 -790 182 -819 807 -1460 1576 -1616 184 -38 291
-41 1356 -41 l1038 0 -4 1198 c-4 1317 -1 1242 -68 1512 -94 380 -275 709
-544 989 -340 354 -771 561 -1251 601 -134 11 -166 11 -312 -1z m358 -1457
c185 -61 348 -217 424 -407 49 -122 56 -203 56 -617 l0 -379 -402 3 -403 3
-81 32 c-201 77 -347 233 -420 448 -52 154 -43 358 21 516 83 206 269 368 480
418 68 17 251 7 325 -17z"/>
<path d="M6040 6000 l0 -720 673 2 672 3 0 715 0 715 -672 3 -673 2 0 -720z"/>
<path d="M6042 3133 l3 -718 670 0 670 0 0 715 0 715 -673 3 -672 2 2 -717z"/>
</g>
</svg>
